<svg width="82" height="77" viewBox="0 0 82 77" fill="none" xmlns="http://www.w3.org/2000/svg">
<path d="M41.5178 60C40.7493 60.0013 39.9898 59.8479 39.293 59.5507C38.5962 59.2534 37.9792 58.8195 37.4854 58.2796L19.7238 38.7176C19.281 38.2322 18.9469 37.6716 18.7405 37.0679C18.5341 36.4641 18.4594 35.829 18.5208 35.1989C18.5822 34.5687 18.7784 33.9557 19.0981 33.395C19.4179 32.8343 19.8551 32.3369 20.3846 31.931C20.9142 31.5252 21.5257 31.2189 22.1844 31.0297C22.8431 30.8405 23.5359 30.7721 24.2235 30.8284C24.911 30.8846 25.5797 31.0644 26.1914 31.3576C26.8031 31.6507 27.3458 32.0514 27.7885 32.5368L40.7177 46.81L68.7523 2.33358C69.4611 1.25215 70.6048 0.469156 71.9373 0.153269C73.2698 -0.162617 74.6843 0.0138833 75.8761 0.64475C77.068 1.27562 77.9418 2.31036 78.3094 3.52609C78.6769 4.74182 78.5088 6.04123 77.8412 7.14443L46.0942 57.5786C45.6719 58.2499 45.0788 58.8177 44.3656 59.2337C43.6524 59.6497 42.8401 59.9017 41.9979 59.9681C41.8492 59.9855 41.6997 59.9962 41.5498 60H41.5178Z" fill="#00BE00"/>
<mask id="path-2-inside-1_14_92" fill="white">
<path d="M51.7225 8.66634C52.608 6.23363 51.3563 3.51257 48.8322 2.93735C42.4971 1.49362 35.8668 1.71508 29.5987 3.61949C21.8287 5.98018 15.0351 10.7993 10.239 17.3523C5.4429 23.9053 2.90359 31.8381 3.0028 39.9581C3.10201 48.0782 5.83438 55.9466 10.7891 62.3804C15.7439 68.8143 22.6533 73.466 30.4786 75.6361C38.3038 77.8063 46.6221 77.3776 54.1829 74.4146C61.7436 71.4516 68.1383 66.1143 72.4054 59.2052C75.8478 53.6314 77.7556 47.2777 77.9781 40.784C78.0667 38.1967 75.7556 36.2915 73.1775 36.5261V36.5261C70.5993 36.7607 68.7404 39.0516 68.544 41.633C68.2047 46.0942 66.8037 50.434 64.4291 54.2789C61.2287 59.4607 56.4327 63.4637 50.7622 65.6859C45.0916 67.9082 38.8529 68.2297 32.9839 66.6021C27.115 64.9745 21.9329 61.4858 18.2169 56.6603C14.5008 51.8349 12.4515 45.9336 12.3771 39.8436C12.3027 33.7536 14.2072 27.804 17.8042 22.8892C21.4013 17.9745 26.4966 14.3601 32.324 12.5896C36.6479 11.2759 41.2016 11.03 45.6015 11.8415C48.1474 12.3111 50.8371 11.099 51.7225 8.66634V8.66634Z"/>
</mask>
<path d="M51.7225 8.66634C52.608 6.23363 51.3563 3.51257 48.8322 2.93735C42.4971 1.49362 35.8668 1.71508 29.5987 3.61949C21.8287 5.98018 15.0351 10.7993 10.239 17.3523C5.4429 23.9053 2.90359 31.8381 3.0028 39.9581C3.10201 48.0782 5.83438 55.9466 10.7891 62.3804C15.7439 68.8143 22.6533 73.466 30.4786 75.6361C38.3038 77.8063 46.6221 77.3776 54.1829 74.4146C61.7436 71.4516 68.1383 66.1143 72.4054 59.2052C75.8478 53.6314 77.7556 47.2777 77.9781 40.784C78.0667 38.1967 75.7556 36.2915 73.1775 36.5261V36.5261C70.5993 36.7607 68.7404 39.0516 68.544 41.633C68.2047 46.0942 66.8037 50.434 64.4291 54.2789C61.2287 59.4607 56.4327 63.4637 50.7622 65.6859C45.0916 67.9082 38.8529 68.2297 32.9839 66.6021C27.115 64.9745 21.9329 61.4858 18.2169 56.6603C14.5008 51.8349 12.4515 45.9336 12.3771 39.8436C12.3027 33.7536 14.2072 27.804 17.8042 22.8892C21.4013 17.9745 26.4966 14.3601 32.324 12.5896C36.6479 11.2759 41.2016 11.03 45.6015 11.8415C48.1474 12.3111 50.8371 11.099 51.7225 8.66634V8.66634Z" stroke="#00BE00" stroke-width="16" stroke-linecap="round" stroke-linejoin="round" mask="url(#path-2-inside-1_14_92)"/>
</svg>